<svg id="visual" viewBox="0 0 960 540" width="960" height="540" xmlns="http://www.w3.org/2000/svg" xmlns:xlink="http://www.w3.org/1999/xlink" version="1.1"><rect x="0" y="0" width="960" height="540" fill="#89ABE3"></rect><path d="M0 305L13.3 321C26.7 337 53.3 369 80 370.3C106.7 371.7 133.3 342.3 160 331.3C186.7 320.3 213.3 327.7 240 330.5C266.7 333.3 293.3 331.7 320 346.3C346.7 361 373.3 392 400 398.2C426.7 404.3 453.3 385.7 480 382.8C506.7 380 533.3 393 560 385.3C586.7 377.7 613.3 349.3 640 353.2C666.7 357 693.3 393 720 399.3C746.7 405.7 773.3 382.3 800 381.5C826.7 380.7 853.3 402.3 880 407.3C906.7 412.3 933.3 400.7 946.7 394.8L960 389L960 541L946.7 541C933.3 541 906.7 541 880 541C853.3 541 826.7 541 800 541C773.3 541 746.7 541 720 541C693.3 541 666.7 541 640 541C613.3 541 586.7 541 560 541C533.3 541 506.7 541 480 541C453.3 541 426.7 541 400 541C373.3 541 346.7 541 320 541C293.3 541 266.7 541 240 541C213.3 541 186.7 541 160 541C133.3 541 106.7 541 80 541C53.3 541 26.7 541 13.3 541L0 541Z" fill="#a3bbe1"></path><path d="M0 466L13.3 466.8C26.7 467.7 53.3 469.3 80 461.8C106.7 454.3 133.3 437.7 160 434.2C186.7 430.7 213.3 440.3 240 443.3C266.7 446.3 293.3 442.7 320 441.5C346.7 440.3 373.3 441.7 400 441.5C426.7 441.3 453.3 439.7 480 438.7C506.7 437.7 533.3 437.3 560 426.5C586.7 415.7 613.3 394.3 640 385.8C666.7 377.3 693.3 381.7 720 395.5C746.7 409.3 773.3 432.7 800 436.3C826.7 440 853.3 424 880 424.5C906.7 425 933.3 442 946.7 450.5L960 459L960 541L946.7 541C933.3 541 906.7 541 880 541C853.3 541 826.7 541 800 541C773.3 541 746.7 541 720 541C693.3 541 666.7 541 640 541C613.3 541 586.7 541 560 541C533.3 541 506.7 541 480 541C453.3 541 426.7 541 400 541C373.3 541 346.7 541 320 541C293.3 541 266.7 541 240 541C213.3 541 186.7 541 160 541C133.3 541 106.7 541 80 541C53.3 541 26.7 541 13.3 541L0 541Z" fill="#bedde6"></path><path d="M0 477L13.3 468.5C26.7 460 53.3 443 80 447.8C106.7 452.7 133.3 479.3 160 483.5C186.7 487.7 213.3 469.3 240 465.5C266.7 461.7 293.3 472.3 320 472.5C346.7 472.7 373.3 462.3 400 455.2C426.7 448 453.3 444 480 449C506.7 454 533.3 468 560 471.8C586.7 475.7 613.3 469.3 640 474.8C666.7 480.3 693.3 497.7 720 498.3C746.7 499 773.3 483 800 480.8C826.7 478.7 853.3 490.3 880 490.5C906.7 490.7 933.3 479.3 946.7 473.7L960 468L960 541L946.7 541C933.3 541 906.7 541 880 541C853.3 541 826.7 541 800 541C773.3 541 746.7 541 720 541C693.3 541 666.7 541 640 541C613.3 541 586.7 541 560 541C533.3 541 506.7 541 480 541C453.3 541 426.7 541 400 541C373.3 541 346.7 541 320 541C293.3 541 266.7 541 240 541C213.3 541 186.7 541 160 541C133.3 541 106.7 541 80 541C53.3 541 26.7 541 13.3 541L0 541Z" fill="#f4f7f6"></path></svg>