<svg id="visual" viewBox="0 0 960 540" width="960" height="540" xmlns="http://www.w3.org/2000/svg" xmlns:xlink="http://www.w3.org/1999/xlink" version="1.1"><rect x="0" y="0" width="960" height="540" fill="#89ABE3"></rect><path d="M0 355L137 364L274 364L411 340L549 302L686 330L823 360L960 318L960 541L823 541L686 541L549 541L411 541L274 541L137 541L0 541Z" fill="#89abe3"></path><path d="M0 364L137 387L274 334L411 372L549 335L686 326L823 341L960 373L960 541L823 541L686 541L549 541L411 541L274 541L137 541L0 541Z" fill="#8ec3e5"></path><path d="M0 375L137 403L274 420L411 417L549 417L686 390L823 405L960 385L960 541L823 541L686 541L549 541L411 541L274 541L137 541L0 541Z" fill="#a9d7e4"></path><path d="M0 438L137 453L274 423L411 426L549 431L686 447L823 456L960 466L960 541L823 541L686 541L549 541L411 541L274 541L137 541L0 541Z" fill="#cee8e8"></path><path d="M0 474L137 475L274 492L411 478L549 474L686 464L823 501L960 476L960 541L823 541L686 541L549 541L411 541L274 541L137 541L0 541Z" fill="#f4f7f6"></path></svg>