<svg id="visual" viewBox="0 0 960 540" width="960" height="540" xmlns="http://www.w3.org/2000/svg" xmlns:xlink="http://www.w3.org/1999/xlink" version="1.1"><rect x="0" y="0" width="960" height="540" fill="#89ABE3"></rect><path d="M0 310L13.3 307.2C26.7 304.3 53.3 298.7 80 307.2C106.7 315.7 133.3 338.3 160 336.5C186.7 334.7 213.3 308.3 240 295C266.7 281.7 293.3 281.3 320 298.2C346.7 315 373.3 349 400 358.7C426.7 368.3 453.3 353.7 480 342.3C506.7 331 533.3 323 560 319.2C586.7 315.3 613.3 315.7 640 317C666.7 318.3 693.3 320.7 720 316.8C746.7 313 773.3 303 800 309.7C826.7 316.3 853.3 339.7 880 346.3C906.7 353 933.3 343 946.7 338L960 333L960 541L946.7 541C933.3 541 906.7 541 880 541C853.3 541 826.7 541 800 541C773.3 541 746.7 541 720 541C693.3 541 666.7 541 640 541C613.3 541 586.7 541 560 541C533.3 541 506.7 541 480 541C453.3 541 426.7 541 400 541C373.3 541 346.7 541 320 541C293.3 541 266.7 541 240 541C213.3 541 186.7 541 160 541C133.3 541 106.7 541 80 541C53.3 541 26.7 541 13.3 541L0 541Z" fill="#a3bbe1"></path><path d="M0 388L13.3 389.3C26.7 390.7 53.3 393.3 80 385.3C106.7 377.3 133.3 358.7 160 358.7C186.7 358.7 213.3 377.3 240 376.5C266.7 375.7 293.3 355.3 320 344.8C346.7 334.3 373.3 333.7 400 348.2C426.7 362.7 453.3 392.3 480 394.2C506.7 396 533.3 370 560 370C586.7 370 613.3 396 640 397.5C666.7 399 693.3 376 720 364C746.7 352 773.3 351 800 354.2C826.7 357.3 853.3 364.7 880 363C906.7 361.3 933.3 350.7 946.7 345.3L960 340L960 541L946.7 541C933.3 541 906.7 541 880 541C853.3 541 826.7 541 800 541C773.3 541 746.7 541 720 541C693.3 541 666.7 541 640 541C613.3 541 586.7 541 560 541C533.3 541 506.7 541 480 541C453.3 541 426.7 541 400 541C373.3 541 346.7 541 320 541C293.3 541 266.7 541 240 541C213.3 541 186.7 541 160 541C133.3 541 106.7 541 80 541C53.3 541 26.7 541 13.3 541L0 541Z" fill="#b0d3e5"></path><path d="M0 428L13.3 427.7C26.7 427.3 53.3 426.7 80 420.5C106.7 414.3 133.3 402.7 160 403.8C186.7 405 213.3 419 240 419.8C266.7 420.7 293.3 408.3 320 411.8C346.7 415.3 373.3 434.7 400 435.2C426.7 435.7 453.3 417.3 480 406C506.7 394.7 533.3 390.3 560 399C586.7 407.7 613.3 429.3 640 434.3C666.7 439.3 693.3 427.7 720 417.7C746.7 407.7 773.3 399.3 800 405.5C826.7 411.7 853.3 432.3 880 435.8C906.7 439.3 933.3 425.7 946.7 418.8L960 412L960 541L946.7 541C933.3 541 906.7 541 880 541C853.3 541 826.7 541 800 541C773.3 541 746.7 541 720 541C693.3 541 666.7 541 640 541C613.3 541 586.7 541 560 541C533.3 541 506.7 541 480 541C453.3 541 426.7 541 400 541C373.3 541 346.7 541 320 541C293.3 541 266.7 541 240 541C213.3 541 186.7 541 160 541C133.3 541 106.7 541 80 541C53.3 541 26.7 541 13.3 541L0 541Z" fill="#cfe6e8"></path><path d="M0 450L13.3 459C26.7 468 53.3 486 80 493C106.7 500 133.3 496 160 489.5C186.7 483 213.3 474 240 467.2C266.7 460.3 293.3 455.7 320 456C346.7 456.3 373.3 461.7 400 462.7C426.7 463.7 453.3 460.3 480 461.8C506.7 463.3 533.3 469.7 560 476.8C586.7 484 613.3 492 640 493.7C666.7 495.3 693.3 490.7 720 484.8C746.7 479 773.3 472 800 474.7C826.7 477.3 853.3 489.7 880 486.7C906.7 483.7 933.3 465.3 946.7 456.2L960 447L960 541L946.7 541C933.3 541 906.7 541 880 541C853.3 541 826.7 541 800 541C773.3 541 746.7 541 720 541C693.3 541 666.7 541 640 541C613.3 541 586.7 541 560 541C533.3 541 506.7 541 480 541C453.3 541 426.7 541 400 541C373.3 541 346.7 541 320 541C293.3 541 266.7 541 240 541C213.3 541 186.7 541 160 541C133.3 541 106.7 541 80 541C53.3 541 26.7 541 13.3 541L0 541Z" fill="#f4f7f6"></path></svg>