<svg id="visual" viewBox="0 0 960 540" width="960" height="540" xmlns="http://www.w3.org/2000/svg" xmlns:xlink="http://www.w3.org/1999/xlink" version="1.1"><path d="M0 87L20 84.3C40 81.7 80 76.3 120 80C160 83.7 200 96.3 240 100.8C280 105.3 320 101.7 360 99.8C400 98 440 98 480 93.5C520 89 560 80 600 79.2C640 78.3 680 85.7 720 86.7C760 87.7 800 82.3 840 80.5C880 78.7 920 80.3 940 81.2L960 82L960 0L940 0C920 0 880 0 840 0C800 0 760 0 720 0C680 0 640 0 600 0C560 0 520 0 480 0C440 0 400 0 360 0C320 0 280 0 240 0C200 0 160 0 120 0C80 0 40 0 20 0L0 0Z" fill="#89abe3"></path><path d="M0 212L20 223.7C40 235.3 80 258.7 120 271.2C160 283.7 200 285.3 240 275.3C280 265.3 320 243.7 360 238.3C400 233 440 244 480 245.8C520 247.7 560 240.3 600 236.7C640 233 680 233 720 239.3C760 245.7 800 258.3 840 267.3C880 276.3 920 281.7 940 284.3L960 287L960 80L940 79.2C920 78.3 880 76.7 840 78.5C800 80.3 760 85.7 720 84.7C680 83.7 640 76.3 600 77.2C560 78 520 87 480 91.5C440 96 400 96 360 97.8C320 99.7 280 103.3 240 98.8C200 94.3 160 81.7 120 78C80 74.3 40 79.7 20 82.3L0 85Z" fill="#8ec3e5"></path><path d="M0 293L20 300.2C40 307.3 80 321.7 120 334.2C160 346.7 200 357.3 240 353.7C280 350 320 332 360 329.3C400 326.7 440 339.3 480 339.3C520 339.3 560 326.7 600 321.3C640 316 680 318 720 327C760 336 800 352 840 361.8C880 371.7 920 375.3 940 377.2L960 379L960 285L940 282.3C920 279.7 880 274.3 840 265.3C800 256.3 760 243.7 720 237.3C680 231 640 231 600 234.7C560 238.3 520 245.7 480 243.8C440 242 400 231 360 236.3C320 241.7 280 263.3 240 273.3C200 283.3 160 281.7 120 269.2C80 256.7 40 233.3 20 221.7L0 210Z" fill="#a9d7e4"></path><path d="M0 357L20 364.3C40 371.7 80 386.3 120 401.7C160 417 200 433 240 430.2C280 427.3 320 405.7 360 398.5C400 391.3 440 398.7 480 396C520 393.3 560 380.7 600 378.8C640 377 680 386 720 395C760 404 800 413 840 420.2C880 427.3 920 432.7 940 435.3L960 438L960 377L940 375.2C920 373.3 880 369.7 840 359.8C800 350 760 334 720 325C680 316 640 314 600 319.3C560 324.7 520 337.3 480 337.3C440 337.3 400 324.7 360 327.3C320 330 280 348 240 351.7C200 355.3 160 344.7 120 332.2C80 319.7 40 305.3 20 298.2L0 291Z" fill="#cee8e8"></path><path d="M0 541L20 541C40 541 80 541 120 541C160 541 200 541 240 541C280 541 320 541 360 541C400 541 440 541 480 541C520 541 560 541 600 541C640 541 680 541 720 541C760 541 800 541 840 541C880 541 920 541 940 541L960 541L960 436L940 433.3C920 430.7 880 425.3 840 418.2C800 411 760 402 720 393C680 384 640 375 600 376.8C560 378.7 520 391.3 480 394C440 396.7 400 389.3 360 396.5C320 403.7 280 425.3 240 428.2C200 431 160 415 120 399.7C80 384.3 40 369.7 20 362.3L0 355Z" fill="#f4f7f6"></path></svg>