<svg id="visual" viewBox="0 0 960 540" width="960" height="540" xmlns="http://www.w3.org/2000/svg" xmlns:xlink="http://www.w3.org/1999/xlink" version="1.1"><rect x="0" y="0" width="960" height="540" fill="#89ABE3"></rect><path d="M0 233L13.3 217C26.7 201 53.3 169 80 167.7C106.7 166.3 133.3 195.7 160 206.7C186.7 217.7 213.3 210.3 240 207.5C266.7 204.7 293.3 206.3 320 191.7C346.7 177 373.3 146 400 139.8C426.7 133.7 453.3 152.3 480 155.2C506.7 158 533.3 145 560 152.7C586.7 160.3 613.3 188.7 640 184.8C666.7 181 693.3 145 720 138.7C746.7 132.3 773.3 155.7 800 156.5C826.7 157.3 853.3 135.7 880 130.7C906.7 125.7 933.3 137.3 946.7 143.2L960 149L960 0L946.7 0C933.3 0 906.7 0 880 0C853.3 0 826.7 0 800 0C773.3 0 746.7 0 720 0C693.3 0 666.7 0 640 0C613.3 0 586.7 0 560 0C533.3 0 506.7 0 480 0C453.3 0 426.7 0 400 0C373.3 0 346.7 0 320 0C293.3 0 266.7 0 240 0C213.3 0 186.7 0 160 0C133.3 0 106.7 0 80 0C53.3 0 26.7 0 13.3 0L0 0Z" fill="#a3bbe1"></path><path d="M0 72L13.3 71.2C26.7 70.3 53.3 68.7 80 76.2C106.7 83.7 133.3 100.3 160 103.8C186.7 107.3 213.3 97.7 240 94.7C266.7 91.7 293.3 95.3 320 96.5C346.7 97.7 373.3 96.3 400 96.5C426.7 96.7 453.3 98.3 480 99.3C506.7 100.3 533.3 100.7 560 111.5C586.7 122.3 613.3 143.7 640 152.2C666.7 160.7 693.3 156.3 720 142.5C746.7 128.7 773.3 105.3 800 101.7C826.7 98 853.3 114 880 113.5C906.7 113 933.3 96 946.7 87.5L960 79L960 0L946.7 0C933.3 0 906.7 0 880 0C853.3 0 826.7 0 800 0C773.3 0 746.7 0 720 0C693.3 0 666.7 0 640 0C613.3 0 586.7 0 560 0C533.3 0 506.7 0 480 0C453.3 0 426.7 0 400 0C373.3 0 346.7 0 320 0C293.3 0 266.7 0 240 0C213.3 0 186.7 0 160 0C133.3 0 106.7 0 80 0C53.3 0 26.7 0 13.3 0L0 0Z" fill="#bedde6"></path><path d="M0 61L13.3 69.5C26.7 78 53.3 95 80 90.2C106.7 85.3 133.3 58.7 160 54.5C186.7 50.3 213.3 68.7 240 72.5C266.7 76.3 293.3 65.7 320 65.5C346.7 65.3 373.3 75.7 400 82.8C426.7 90 453.3 94 480 89C506.7 84 533.3 70 560 66.2C586.7 62.3 613.3 68.7 640 63.2C666.7 57.7 693.3 40.3 720 39.7C746.7 39 773.3 55 800 57.2C826.7 59.3 853.3 47.7 880 47.5C906.7 47.3 933.3 58.7 946.7 64.3L960 70L960 0L946.7 0C933.3 0 906.7 0 880 0C853.3 0 826.7 0 800 0C773.3 0 746.7 0 720 0C693.3 0 666.7 0 640 0C613.3 0 586.7 0 560 0C533.3 0 506.7 0 480 0C453.3 0 426.7 0 400 0C373.3 0 346.7 0 320 0C293.3 0 266.7 0 240 0C213.3 0 186.7 0 160 0C133.3 0 106.7 0 80 0C53.3 0 26.7 0 13.3 0L0 0Z" fill="#f4f7f6"></path></svg>